<svg version="1.2" baseProfile="tiny-ps" xmlns="http://www.w3.org/2000/svg" viewBox="0 0 576 576" width="576" height="576">
	<title>Stories_icon-svg</title>
	<style>
		tspan { white-space:pre }
		.shp0 { fill: #2fd9e3 } 
	</style>
	<path id="Layer" class="shp0" d="M575.99 94.75L575.99 432.59C575.99 448.82 562.86 462.36 545.97 463.25C496.5 465.85 396.45 475.35 327.27 510.17C316.62 515.53 303.99 508.23 303.99 496.68L303.99 132.81C303.99 127.53 306.62 122.48 311.26 119.64C378.5 78.48 487.42 67.16 542.22 64.05C560.64 63.01 576 77.04 575.99 94.75ZM272 132.63L272 496.75C272 508.27 259.41 515.56 248.79 510.21C179.61 475.37 79.51 465.86 30.02 463.26C13.13 462.38 0 448.84 0 432.6L0 94.75C0 77.04 15.36 63.01 33.78 64.05C88.58 67.17 197.5 78.48 264.73 119.64C269.38 122.49 272 127.34 272 132.63Z" />
</svg>